PathFileType	4	(X/Y/Z)	D:\MotionData\Pi-Spi Study\20230118_AMCsubject1\Trimmed_left_abd_001_rotated.trc
DataRate	CameraRate	NumFrames	NumMarkers	Units	OrigDataRate	OrigDataStartFrame	OrigNumFrames
200.00	200.00	       7	35	mm	200.00	176	       200
Frame#	Time	C7			Sternum			r_AMC1			r_AMC2			r_AMC3			l_AMC1			l_AMC2			l_AMC3			PX			T8			r_humerous			r_elbow_medial			r_elbow_lateral			r_forearm			r_wrist_radius			r_wrist_ulna			r_MCP_1			r_MCP_3			l_humerous			l_elbow_medial			l_elbow_lateral			l_forearm			l_wrist_radius			l_wrist_ulna			l_MCP_1			l_MCP_3			r_ASIS			r_PSIS			l_ASIS			l_PSIS			r_IC			l_IC			TS			AI			AA			
		X1	Y1	Z1	X2	Y2	Z2	X3	Y3	Z3	X4	Y4	Z4	X5	Y5	Z5	X6	Y6	Z6	X7	Y7	Z7	X8	Y8	Z8	X9	Y9	Z9	X10	Y10	Z10	X11	Y11	Z11	X12	Y12	Z12	X13	Y13	Z13	X14	Y14	Z14	X15	Y15	Z15	X16	Y16	Z16	X17	Y17	Z17	X18	Y18	Z18	X19	Y19	Z19	X20	Y20	Z20	X21	Y21	Z21	X22	Y22	Z22	X23	Y23	Z23	X24	Y24	Z24	X25	Y25	Z25	X26	Y26	Z26	X27	Y27	Z27	X28	Y28	Z28	X29	Y29	Z29	X30	Y30	Z30	X31	Y31	Z31	X32	Y32	Z32	X33	Y33	Z33	X34	Y34	Z34	X35	Y35	Z35	

176	0.875	208.4576	1374.5588	-206.3609	336.6504	1302.5842	-199.1311	208.44	1315.7296	-39.9986	247.3144	1311.8015	-9.0955	268.3415	1346.3337	-29.3537	228.9812	1324.3815	-372.3073	268.1349	1316.0101	-403.9255	292.1101	1351.3801	-374.1691	391.197	1112.3618	-195.2559	158.1108	1191.3826	-216.8204	314.2335	1124.8473	-1.4114	249.6178	986.3904	-32.7378	256.0437	995.3255	35.6011	310.8255	841.0198	61.1568	363.1236	779.3093	45.8373	314.0295	771.8532	61.0053	386.1193	697.0826	60.0003	336.7076	692.7427	71.1738	351.6947	1122.9838	-395.4428	290.7865	993.392	-367.7618	295.0553	989.2656	-419.9928	330.3269	839.8118	-452.1525	371.3206	766.663	-447.0337	326.5601	762.9515	-446.6085	379.7113	687.1726	-457.4746	330.9129	683.9806	-451.7635	376.1607	906.7385	-66.21	186.9695	923.9213	-152.3703	380.4953	893.3157	-328.3361	189.2098	918.589	-255.7101	285.7347	966.0383	-41.0387	288.8805	938.554	-366.3906	133.8645	1309.1063	-322.5011	119.3621	1209.2749	-314.2537	210.451	1293.4397	-436.7587
177	0.88	208.4327	1374.5588	-206.373	336.6422	1302.5775	-199.1553	208.4214	1315.7012	-40.0423	247.2457	1311.8477	-9.0881	268.3074	1346.3821	-29.3558	229.0394	1324.2915	-372.3486	268.1309	1316.0079	-403.9389	292.1242	1351.3584	-374.1948	391.1182	1112.3569	-195.2641	158.1047	1191.3739	-216.8279	314.207	1124.8948	-1.4613	249.6251	986.4045	-32.7499	256.049	995.38	35.62	310.8189	841.0215	61.1438	363.0495	779.3351	45.8637	313.9972	771.8134	60.943	386.0452	697.1751	59.9998	336.7061	692.7039	71.1377	351.7467	1122.8962	-395.4509	290.477	993.5582	-367.7761	295.0214	989.2635	-420.0104	330.3498	839.7998	-452.1544	371.3607	766.5519	-447.007	326.5532	762.9436	-446.6106	379.7301	687.0966	-457.4222	330.3868	684.8027	-452.0413	376.1911	906.7344	-66.2648	186.9439	923.9408	-152.3795	380.474	893.2976	-328.3435	189.2145	918.5978	-255.7012	285.667	966.0995	-41.0392	288.859	938.4959	-366.386	133.866	1309.0936	-322.5333	119.3466	1209.2875	-314.2946	210.4393	1293.4203	-436.7818
178	0.885	208.3371	1374.5054	-206.3333	336.292	1302.2654	-199.2799	208.42	1315.7081	-40.0629	247.2327	1311.8163	-9.1005	268.3434	1346.2262	-29.4635	228.996	1324.3479	-372.3232	268.0997	1316.0059	-403.9433	292.074	1351.3767	-374.1442	391.1141	1112.3843	-195.2767	158.1224	1191.4015	-216.8572	314.1399	1124.8657	-1.4807	249.576	986.4106	-32.7509	256.0227	995.3145	35.5677	310.8106	841.0203	61.1269	363.0239	779.3624	45.866	314.0377	771.7246	60.9449	386.0359	697.0881	60.0222	336.5945	692.8093	71.1864	351.683	1122.9175	-395.4227	290.4785	993.5751	-367.7461	295.0065	989.2642	-420.004	330.3501	839.8096	-452.1594	371.3511	766.6091	-447.0321	326.5473	762.937	-446.6251	379.6661	687.2174	-457.4441	330.9433	683.9464	-451.7862	376.1641	906.704	-66.2355	186.969	923.9512	-152.377	380.4458	893.2801	-328.3473	189.2029	918.5876	-255.7192	285.6855	966.0184	-41.0234	288.8436	938.4839	-366.4531	133.8454	1309.0764	-322.5456	119.3301	1209.2802	-314.3184	210.4281	1293.427	-436.7861
179	0.89	208.3928	1374.5765	-206.3907	336.6083	1302.5846	-199.1841	208.3816	1315.745	-40.0397	247.2352	1311.8018	-9.1404	268.2188	1346.4159	-29.3564	228.9617	1324.3851	-372.3851	268.0916	1315.9784	-403.9642	292.0898	1351.3698	-374.2328	391.1661	1112.4338	-195.3045	158.1027	1191.3897	-216.8532	314.1547	1124.9043	-1.4416	249.5499	986.4053	-32.7548	256.0108	995.3762	35.5897	310.7524	841.0368	61.1443	362.9744	779.3321	45.91	313.9496	771.8292	60.9797	385.9883	697.1071	60.0094	336.5715	692.8113	71.1969	351.6848	1122.9303	-395.445	290.7544	993.381	-367.7647	294.9856	989.2499	-420.036	330.3476	839.7986	-452.178	371.307	766.6332	-447.0465	326.5523	762.9298	-446.6434	379.7505	687.1143	-457.4051	330.833	684.263	-451.8232	376.1401	906.7135	-66.2474	186.9514	923.9277	-152.3719	380.4445	893.2903	-328.3567	189.1859	918.5981	-255.7069	285.753	966.045	-41.0719	288.8017	938.5216	-366.4401	133.7956	1309.0638	-322.5672	119.2726	1209.224	-314.3025	210.4312	1293.4286	-436.7964
180	0.895	208.3196	1374.4932	-206.3638	336.2855	1302.2723	-199.3122	208.3634	1315.7294	-40.0932	247.2045	1311.8422	-9.13	268.2381	1346.412	-29.4041	228.9807	1324.3477	-372.3658	268.0851	1315.9887	-403.9842	292.0578	1351.3986	-374.1753	391.0747	1112.4099	-195.2451	158.1067	1191.3814	-216.9029	314.0911	1124.9186	-1.4943	249.5528	986.4319	-32.7642	256.0009	995.3942	35.5884	310.726	841.0476	61.133	362.9154	779.3943	45.8718	313.9309	771.7942	60.9489	385.9498	697.1152	59.9971	336.6232	692.7328	71.1302	351.6531	1122.9097	-395.47	290.4041	993.5441	-367.8132	294.9611	989.2612	-420.0381	330.3233	839.7747	-452.1995	371.3627	766.6293	-447.0809	326.5487	762.9217	-446.6338	379.6744	687.2155	-457.4763	330.9273	683.954	-451.7906	376.1354	906.7363	-66.2502	186.9447	923.9507	-152.3971	380.4351	893.2849	-328.3755	189.2222	918.6039	-255.7266	285.6435	966.0327	-41.0416	288.8106	938.5275	-366.4415	133.7856	1309.0487	-322.5756	119.2514	1209.2459	-314.3386	210.4001	1293.4161	-436.8181
181	0.9	208.3796	1374.5666	-206.4054	336.5734	1302.5878	-199.2051	208.36	1315.7748	-40.063	247.1787	1311.8391	-9.1043	268.2291	1346.3551	-29.3872	228.9751	1324.3125	-372.3698	268.067	1315.9773	-403.9918	292.0674	1351.3617	-374.2924	391.0634	1112.3961	-195.2714	158.0781	1191.3879	-216.887	314.1173	1124.8433	-1.5091	249.5085	986.4521	-32.7584	255.9684	995.3899	35.5737	310.7232	841.029	61.1312	362.9306	779.3366	45.8103	313.9273	771.8933	60.9956	385.8951	697.0955	60.0266	336.5916	692.7214	71.1483	351.6235	1122.9126	-395.5064	290.3617	993.5287	-367.8349	294.9561	989.2485	-420.0682	330.3275	839.7835	-452.1992	371.3225	766.5741	-447.0492	326.5634	762.9258	-446.6577	379.7022	687.1729	-457.531	330.9479	683.9233	-451.8099	376.1862	906.727	-66.2676	186.9584	923.9559	-152.3903	380.4464	893.2997	-328.3595	189.1799	918.6056	-255.7177	285.6553	966.0573	-41.0904	288.7648	938.5529	-366.4217	133.7511	1309.0347	-322.5755	119.2193	1209.1976	-314.3898	210.3774	1293.3955	-436.8102
182	0.905	208.2734	1374.5	-206.3884	336.2469	1302.2941	-199.3176	208.3408	1315.7548	-40.1171	247.1876	1311.8497	-9.151	268.2153	1346.3699	-29.4128	228.9247	1324.3251	-372.3781	268.0288	1315.9861	-404.0074	292.0176	1351.3606	-374.2819	391.0886	1112.4745	-195.3063	158.0519	1191.4009	-216.915	314.0868	1124.8601	-1.5099	249.5054	986.4617	-32.7717	255.9646	995.4309	35.5729	310.6936	841.0784	61.1059	362.9436	779.3223	45.8082	313.8725	771.8592	60.9529	385.9061	697.0805	59.9862	336.5532	692.7702	71.1585	351.6072	1122.9006	-395.4879	290.3617	993.5465	-367.8267	294.9234	989.2504	-420.0644	330.3003	839.7993	-452.21	371.322	766.6112	-447.0774	326.5669	762.8879	-446.6576	379.7989	687.0752	-457.4924	330.88	684.2378	-451.8604	376.1665	906.7489	-66.2535	186.9367	923.9642	-152.3887	380.4368	893.2914	-328.3728	189.1903	918.596	-255.7302	285.6673	966.0227	-41.0606	288.8091	938.4863	-366.4656	133.761	1308.9968	-322.6457	119.167	1209.1748	-314.3649	210.3295	1293.398	-436.8363
